<svg id="Capa_1" enable-background="new 0 0 497 497" height="512" viewBox="0 0 497 497" width="512" xmlns="http://www.w3.org/2000/svg"><g><g><path d="m321.07 150.969c-2.14 0-4.264-.91-5.747-2.677-2.664-3.172-2.252-7.903.92-10.566l122.017-102.239c3.173-2.664 7.903-2.251 10.566.92 2.664 3.172 2.252 7.903-.92 10.566l-122.016 102.239c-1.406 1.181-3.118 1.757-4.82 1.757z" fill="#a2e62e"/></g><g><path d="m308.704 150.969c-1.018 0-2.052-.208-3.042-.648l-106.019-46.078c-3.785-1.682-5.49-6.114-3.808-9.899 1.683-3.786 6.113-5.489 9.899-3.809l106.019 46.078c3.785 1.682 5.49 6.114 3.808 9.899-1.242 2.796-3.984 4.457-6.857 4.457z" fill="#99e6fc"/></g><g><path d="m54.502 208.394c-2.06 0-4.109-.843-5.591-2.497-2.763-3.086-2.501-7.828.585-10.59l110.095-99.85c3.087-2.764 7.828-2.5 10.591.584 2.763 3.086 2.501 7.828-.585 10.59l-110.095 99.85c-1.431 1.282-3.218 1.913-5 1.913z" fill="#eb5569"/></g><path d="m90.72 321.458v147.55c0 7.44-6.04 13.48-13.48 13.48h-63.76c-7.45 0-13.48-6.04-13.48-13.48v-147.55c0-8.54 6.92-15.47 15.47-15.47h59.78c8.54 0 15.47 6.93 15.47 15.47z" fill="#f07281"/><path d="m75.252 305.99h-25.355c8.542 0 15.466 6.924 15.466 15.466v146.267c0 6.435-3.847 12.247-9.771 14.76h21.649c7.443 0 13.476-6.034 13.476-13.476v-147.551c.001-8.542-6.924-15.466-15.465-15.466z" fill="#eb5569"/><path d="m226.15 221.258v247.75c0 7.44-6.04 13.48-13.48 13.48h-63.77c-7.44 0-13.47-6.04-13.47-13.48v-247.75c0-8.54 6.92-15.47 15.46-15.47h59.79c8.54 0 15.47 6.93 15.47 15.47z" fill="#99e6fc"/><path d="m210.679 205.791h-25.355c8.542 0 15.466 6.924 15.466 15.466v246.015c0 6.851-4.332 12.952-10.8 15.211h22.678c7.443 0 13.476-6.034 13.476-13.476v-247.75c.001-8.541-6.923-15.466-15.465-15.466z" fill="#62dbfb"/><path d="m361.57 282.778v186.23c0 7.44-6.03 13.48-13.47 13.48h-63.77c-7.44 0-13.48-6.04-13.48-13.48v-186.23c0-8.55 6.93-15.47 15.47-15.47h59.79c8.54 0 15.46 6.92 15.46 15.47z" fill="#bbec6c"/><path d="m346.107 267.308h-25.355c8.542 0 15.466 6.924 15.466 15.466v185.797c0 6.289-4.001 11.881-9.953 13.912h21.831c7.443 0 13.476-6.034 13.476-13.476v-186.233c.001-8.541-6.924-15.466-15.465-15.466z" fill="#a2e62e"/><path d="m497 150.718v318.29c0 7.44-6.03 13.48-13.48 13.48h-63.76c-7.44 0-13.48-6.04-13.48-13.48v-318.29c0-8.55 6.93-15.47 15.47-15.47h59.78c8.55 0 15.47 6.92 15.47 15.47z" fill="#4fc123"/><path d="m481.534 135.248h-25.355c8.542 0 15.466 6.924 15.466 15.466v316.543c0 7.021-4.607 13.211-11.333 15.226h23.211c7.443 0 13.476-6.034 13.476-13.476v-318.293c.001-8.542-6.923-15.466-15.465-15.466z" fill="#47a920"/><circle cx="180.786" cy="87.273" fill="#99e6fc" r="31.134"/><path d="m180.786 56.14c-4.516 0-8.804.969-12.677 2.699 10.874 4.856 18.456 15.756 18.456 28.435s-7.583 23.579-18.456 28.434c3.874 1.73 8.161 2.699 12.677 2.699 17.195 0 31.134-13.939 31.134-31.134s-13.939-31.133-31.134-31.133z" fill="#62dbfb"/><circle cx="316.214" cy="147.445" fill="#bbec6c" r="19.218"/><circle cx="451.641" cy="33.73" fill="#4fc123" r="19.218"/><circle cx="45.359" cy="208.523" fill="#f07281" r="19.218"/><g><path d="m177.7 430.738v51.75h-15v-51.75c0-4.14 3.36-7.5 7.5-7.5s7.5 3.36 7.5 7.5z" fill="#62dbfb"/></g><path d="m42.17 430.738v51.75h-15v-51.75c0-4.14 3.36-7.5 7.5-7.5s7.5 3.36 7.5 7.5z" fill="#eb5569"/><g><path d="m448.48 430.738v51.75h-15v-51.75c0-4.14 3.36-7.5 7.5-7.5s7.5 3.36 7.5 7.5z" fill="#47a920"/></g><g><path d="m312.95 430.738v51.75h-15v-51.75c0-4.14 3.36-7.5 7.5-7.5s7.5 3.36 7.5 7.5z" fill="#a2e62e"/></g></g></svg>